<svg xmlns="http://www.w3.org/2000/svg" width="1500" height="560" viewBox="0 0 1500 560"><rect width="100%" height="100%" fill="#ffffff"/><style>text{font-family:system-ui,sans-serif;font-size:10px;fill:#172033}.edge{stroke:#8090a5;stroke-width:1}.node{fill:#e8f1ff;stroke:#245a9a;stroke-width:1}</style><line class="edge" x1="25" y1="520" x2="39.5" y2="425"/><line class="edge" x1="54" y1="520" x2="39.5" y2="425"/><line class="edge" x1="83" y1="520" x2="97.5" y2="425"/><line class="edge" x1="112" y1="520" x2="97.5" y2="425"/><line class="edge" x1="141" y1="520" x2="155.5" y2="425"/><line class="edge" x1="170" y1="520" x2="155.5" y2="425"/><line class="edge" x1="39.5" y1="425" x2="68.5" y2="330"/><line class="edge" x1="97.5" y1="425" x2="68.5" y2="330"/><line class="edge" x1="199" y1="520" x2="213.5" y2="425"/><line class="edge" x1="228" y1="520" x2="213.5" y2="425"/><line class="edge" x1="257" y1="520" x2="271.5" y2="425"/><line class="edge" x1="286" y1="520" x2="271.5" y2="425"/><line class="edge" x1="155.5" y1="425" x2="184.5" y2="330"/><line class="edge" x1="213.5" y1="425" x2="184.5" y2="330"/><line class="edge" x1="315" y1="520" x2="329.5" y2="425"/><line class="edge" x1="344" y1="520" x2="329.5" y2="425"/><line class="edge" x1="373" y1="520" x2="387.5" y2="425"/><line class="edge" x1="402" y1="520" x2="387.5" y2="425"/><line class="edge" x1="271.5" y1="425" x2="300.5" y2="330"/><line class="edge" x1="329.5" y1="425" x2="300.5" y2="330"/><line class="edge" x1="68.5" y1="330" x2="126.5" y2="235"/><line class="edge" x1="184.5" y1="330" x2="126.5" y2="235"/><line class="edge" x1="431" y1="520" x2="445.5" y2="425"/><line class="edge" x1="460" y1="520" x2="445.5" y2="425"/><line class="edge" x1="489" y1="520" x2="503.5" y2="425"/><line class="edge" x1="518" y1="520" x2="503.5" y2="425"/><line class="edge" x1="387.5" y1="425" x2="416.5" y2="330"/><line class="edge" x1="445.5" y1="425" x2="416.5" y2="330"/><line class="edge" x1="547" y1="520" x2="561.5" y2="425"/><line class="edge" x1="576" y1="520" x2="561.5" y2="425"/><line class="edge" x1="605" y1="520" x2="619.5" y2="425"/><line class="edge" x1="634" y1="520" x2="619.5" y2="425"/><line class="edge" x1="503.5" y1="425" x2="532.5" y2="330"/><line class="edge" x1="561.5" y1="425" x2="532.5" y2="330"/><line class="edge" x1="300.5" y1="330" x2="358.5" y2="235"/><line class="edge" x1="416.5" y1="330" x2="358.5" y2="235"/><line class="edge" x1="663" y1="520" x2="677.5" y2="425"/><line class="edge" x1="692" y1="520" x2="677.5" y2="425"/><line class="edge" x1="721" y1="520" x2="735.5" y2="425"/><line class="edge" x1="750" y1="520" x2="735.5" y2="425"/><line class="edge" x1="619.5" y1="425" x2="648.5" y2="330"/><line class="edge" x1="677.5" y1="425" x2="648.5" y2="330"/><line class="edge" x1="779" y1="520" x2="793.5" y2="425"/><line class="edge" x1="808" y1="520" x2="793.5" y2="425"/><line class="edge" x1="837" y1="520" x2="851.5" y2="425"/><line class="edge" x1="866" y1="520" x2="851.5" y2="425"/><line class="edge" x1="735.5" y1="425" x2="764.5" y2="330"/><line class="edge" x1="793.5" y1="425" x2="764.5" y2="330"/><line class="edge" x1="532.5" y1="330" x2="590.5" y2="235"/><line class="edge" x1="648.5" y1="330" x2="590.5" y2="235"/><line class="edge" x1="126.5" y1="235" x2="242.5" y2="140"/><line class="edge" x1="358.5" y1="235" x2="242.5" y2="140"/><line class="edge" x1="895" y1="520" x2="909.5" y2="425"/><line class="edge" x1="924" y1="520" x2="909.5" y2="425"/><line class="edge" x1="953" y1="520" x2="967.5" y2="425"/><line class="edge" x1="982" y1="520" x2="967.5" y2="425"/><line class="edge" x1="851.5" y1="425" x2="880.5" y2="330"/><line class="edge" x1="909.5" y1="425" x2="880.5" y2="330"/><line class="edge" x1="1011" y1="520" x2="1025.5" y2="425"/><line class="edge" x1="1040" y1="520" x2="1025.5" y2="425"/><line class="edge" x1="1069" y1="520" x2="1083.5" y2="425"/><line class="edge" x1="1098" y1="520" x2="1083.5" y2="425"/><line class="edge" x1="967.5" y1="425" x2="996.5" y2="330"/><line class="edge" x1="1025.5" y1="425" x2="996.5" y2="330"/><line class="edge" x1="764.5" y1="330" x2="822.5" y2="235"/><line class="edge" x1="880.5" y1="330" x2="822.5" y2="235"/><line class="edge" x1="1127" y1="520" x2="1141.5" y2="425"/><line class="edge" x1="1156" y1="520" x2="1141.5" y2="425"/><line class="edge" x1="1185" y1="520" x2="1199.5" y2="425"/><line class="edge" x1="1214" y1="520" x2="1199.5" y2="425"/><line class="edge" x1="1083.5" y1="425" x2="1112.5" y2="330"/><line class="edge" x1="1141.5" y1="425" x2="1112.5" y2="330"/><line class="edge" x1="1243" y1="520" x2="1257.5" y2="425"/><line class="edge" x1="1272" y1="520" x2="1257.5" y2="425"/><line class="edge" x1="1301" y1="520" x2="1315.5" y2="425"/><line class="edge" x1="1330" y1="520" x2="1315.5" y2="425"/><line class="edge" x1="1199.5" y1="425" x2="1228.5" y2="330"/><line class="edge" x1="1257.5" y1="425" x2="1228.5" y2="330"/><line class="edge" x1="996.5" y1="330" x2="1054.5" y2="235"/><line class="edge" x1="1112.5" y1="330" x2="1054.5" y2="235"/><line class="edge" x1="590.5" y1="235" x2="706.5" y2="140"/><line class="edge" x1="822.5" y1="235" x2="706.5" y2="140"/><line class="edge" x1="1359" y1="520" x2="1373.5" y2="425"/><line class="edge" x1="1388" y1="520" x2="1373.5" y2="425"/><circle class="node" cx="25" cy="520" r="7"/><text x="25" y="510" text-anchor="middle">1</text><circle class="node" cx="54" cy="520" r="7"/><text x="54" y="510" text-anchor="middle">2</text><circle class="node" cx="83" cy="520" r="7"/><text x="83" y="510" text-anchor="middle">3</text><circle class="node" cx="112" cy="520" r="7"/><text x="112" y="510" text-anchor="middle">4</text><circle class="node" cx="141" cy="520" r="7"/><text x="141" y="510" text-anchor="middle">5</text><circle class="node" cx="170" cy="520" r="7"/><text x="170" y="510" text-anchor="middle">6</text><circle class="node" cx="199" cy="520" r="7"/><text x="199" y="510" text-anchor="middle">7</text><circle class="node" cx="228" cy="520" r="7"/><text x="228" y="510" text-anchor="middle">8</text><circle class="node" cx="257" cy="520" r="7"/><text x="257" y="510" text-anchor="middle">9</text><circle class="node" cx="286" cy="520" r="7"/><text x="286" y="510" text-anchor="middle">10</text><circle class="node" cx="315" cy="520" r="7"/><text x="315" y="510" text-anchor="middle">11</text><circle class="node" cx="344" cy="520" r="7"/><text x="344" y="510" text-anchor="middle">12</text><circle class="node" cx="373" cy="520" r="7"/><text x="373" y="510" text-anchor="middle">13</text><circle class="node" cx="402" cy="520" r="7"/><text x="402" y="510" text-anchor="middle">14</text><circle class="node" cx="431" cy="520" r="7"/><text x="431" y="510" text-anchor="middle">15</text><circle class="node" cx="460" cy="520" r="7"/><text x="460" y="510" text-anchor="middle">16</text><circle class="node" cx="489" cy="520" r="7"/><text x="489" y="510" text-anchor="middle">17</text><circle class="node" cx="518" cy="520" r="7"/><text x="518" y="510" text-anchor="middle">18</text><circle class="node" cx="547" cy="520" r="7"/><text x="547" y="510" text-anchor="middle">19</text><circle class="node" cx="576" cy="520" r="7"/><text x="576" y="510" text-anchor="middle">20</text><circle class="node" cx="605" cy="520" r="7"/><text x="605" y="510" text-anchor="middle">21</text><circle class="node" cx="634" cy="520" r="7"/><text x="634" y="510" text-anchor="middle">22</text><circle class="node" cx="663" cy="520" r="7"/><text x="663" y="510" text-anchor="middle">23</text><circle class="node" cx="692" cy="520" r="7"/><text x="692" y="510" text-anchor="middle">24</text><circle class="node" cx="721" cy="520" r="7"/><text x="721" y="510" text-anchor="middle">25</text><circle class="node" cx="750" cy="520" r="7"/><text x="750" y="510" text-anchor="middle">26</text><circle class="node" cx="779" cy="520" r="7"/><text x="779" y="510" text-anchor="middle">27</text><circle class="node" cx="808" cy="520" r="7"/><text x="808" y="510" text-anchor="middle">28</text><circle class="node" cx="837" cy="520" r="7"/><text x="837" y="510" text-anchor="middle">29</text><circle class="node" cx="866" cy="520" r="7"/><text x="866" y="510" text-anchor="middle">30</text><circle class="node" cx="895" cy="520" r="7"/><text x="895" y="510" text-anchor="middle">31</text><circle class="node" cx="924" cy="520" r="7"/><text x="924" y="510" text-anchor="middle">32</text><circle class="node" cx="953" cy="520" r="7"/><text x="953" y="510" text-anchor="middle">33</text><circle class="node" cx="982" cy="520" r="7"/><text x="982" y="510" text-anchor="middle">34</text><circle class="node" cx="1011" cy="520" r="7"/><text x="1011" y="510" text-anchor="middle">35</text><circle class="node" cx="1040" cy="520" r="7"/><text x="1040" y="510" text-anchor="middle">36</text><circle class="node" cx="1069" cy="520" r="7"/><text x="1069" y="510" text-anchor="middle">37</text><circle class="node" cx="1098" cy="520" r="7"/><text x="1098" y="510" text-anchor="middle">38</text><circle class="node" cx="1127" cy="520" r="7"/><text x="1127" y="510" text-anchor="middle">39</text><circle class="node" cx="1156" cy="520" r="7"/><text x="1156" y="510" text-anchor="middle">40</text><circle class="node" cx="1185" cy="520" r="7"/><text x="1185" y="510" text-anchor="middle">41</text><circle class="node" cx="1214" cy="520" r="7"/><text x="1214" y="510" text-anchor="middle">42</text><circle class="node" cx="1243" cy="520" r="7"/><text x="1243" y="510" text-anchor="middle">43</text><circle class="node" cx="1272" cy="520" r="7"/><text x="1272" y="510" text-anchor="middle">44</text><circle class="node" cx="1301" cy="520" r="7"/><text x="1301" y="510" text-anchor="middle">45</text><circle class="node" cx="1330" cy="520" r="7"/><text x="1330" y="510" text-anchor="middle">46</text><circle class="node" cx="1359" cy="520" r="7"/><text x="1359" y="510" text-anchor="middle">47</text><circle class="node" cx="1388" cy="520" r="7"/><text x="1388" y="510" text-anchor="middle">48</text><circle class="node" cx="1417" cy="520" r="7"/><text x="1417" y="510" text-anchor="middle">49</text><circle class="node" cx="1446" cy="520" r="7"/><text x="1446" y="510" text-anchor="middle">50</text><circle class="node" cx="39.5" cy="425" r="7"/><text x="39.5" y="415" text-anchor="middle">1-2</text><circle class="node" cx="97.5" cy="425" r="7"/><text x="97.5" y="415" text-anchor="middle">3-4</text><circle class="node" cx="155.5" cy="425" r="7"/><text x="155.5" y="415" text-anchor="middle">5-6</text><circle class="node" cx="68.5" cy="330" r="7"/><text x="68.5" y="320" text-anchor="middle">1-4</text><circle class="node" cx="213.5" cy="425" r="7"/><text x="213.5" y="415" text-anchor="middle">7-8</text><circle class="node" cx="271.5" cy="425" r="7"/><text x="271.5" y="415" text-anchor="middle">9-10</text><circle class="node" cx="184.5" cy="330" r="7"/><text x="184.5" y="320" text-anchor="middle">5-8</text><circle class="node" cx="329.5" cy="425" r="7"/><text x="329.5" y="415" text-anchor="middle">11-12</text><circle class="node" cx="387.5" cy="425" r="7"/><text x="387.5" y="415" text-anchor="middle">13-14</text><circle class="node" cx="300.5" cy="330" r="7"/><text x="300.5" y="320" text-anchor="middle">9-12</text><circle class="node" cx="126.5" cy="235" r="7"/><text x="126.5" y="225" text-anchor="middle">1-8</text><circle class="node" cx="445.5" cy="425" r="7"/><text x="445.5" y="415" text-anchor="middle">15-16</text><circle class="node" cx="503.5" cy="425" r="7"/><text x="503.5" y="415" text-anchor="middle">17-18</text><circle class="node" cx="416.5" cy="330" r="7"/><text x="416.5" y="320" text-anchor="middle">13-16</text><circle class="node" cx="561.5" cy="425" r="7"/><text x="561.5" y="415" text-anchor="middle">19-20</text><circle class="node" cx="619.5" cy="425" r="7"/><text x="619.5" y="415" text-anchor="middle">21-22</text><circle class="node" cx="532.5" cy="330" r="7"/><text x="532.5" y="320" text-anchor="middle">17-20</text><circle class="node" cx="358.5" cy="235" r="7"/><text x="358.5" y="225" text-anchor="middle">9-16</text><circle class="node" cx="677.5" cy="425" r="7"/><text x="677.5" y="415" text-anchor="middle">23-24</text><circle class="node" cx="735.5" cy="425" r="7"/><text x="735.5" y="415" text-anchor="middle">25-26</text><circle class="node" cx="648.5" cy="330" r="7"/><text x="648.5" y="320" text-anchor="middle">21-24</text><circle class="node" cx="793.5" cy="425" r="7"/><text x="793.5" y="415" text-anchor="middle">27-28</text><circle class="node" cx="851.5" cy="425" r="7"/><text x="851.5" y="415" text-anchor="middle">29-30</text><circle class="node" cx="764.5" cy="330" r="7"/><text x="764.5" y="320" text-anchor="middle">25-28</text><circle class="node" cx="590.5" cy="235" r="7"/><text x="590.5" y="225" text-anchor="middle">17-24</text><circle class="node" cx="242.5" cy="140" r="7"/><text x="242.5" y="130" text-anchor="middle">1-16</text><circle class="node" cx="909.5" cy="425" r="7"/><text x="909.5" y="415" text-anchor="middle">31-32</text><circle class="node" cx="967.5" cy="425" r="7"/><text x="967.5" y="415" text-anchor="middle">33-34</text><circle class="node" cx="880.5" cy="330" r="7"/><text x="880.5" y="320" text-anchor="middle">29-32</text><circle class="node" cx="1025.5" cy="425" r="7"/><text x="1025.5" y="415" text-anchor="middle">35-36</text><circle class="node" cx="1083.5" cy="425" r="7"/><text x="1083.5" y="415" text-anchor="middle">37-38</text><circle class="node" cx="996.5" cy="330" r="7"/><text x="996.5" y="320" text-anchor="middle">33-36</text><circle class="node" cx="822.5" cy="235" r="7"/><text x="822.5" y="225" text-anchor="middle">25-32</text><circle class="node" cx="1141.5" cy="425" r="7"/><text x="1141.5" y="415" text-anchor="middle">39-40</text><circle class="node" cx="1199.5" cy="425" r="7"/><text x="1199.5" y="415" text-anchor="middle">41-42</text><circle class="node" cx="1112.5" cy="330" r="7"/><text x="1112.5" y="320" text-anchor="middle">37-40</text><circle class="node" cx="1257.5" cy="425" r="7"/><text x="1257.5" y="415" text-anchor="middle">43-44</text><circle class="node" cx="1315.5" cy="425" r="7"/><text x="1315.5" y="415" text-anchor="middle">45-46</text><circle class="node" cx="1228.5" cy="330" r="7"/><text x="1228.5" y="320" text-anchor="middle">41-44</text><circle class="node" cx="1054.5" cy="235" r="7"/><text x="1054.5" y="225" text-anchor="middle">33-40</text><circle class="node" cx="706.5" cy="140" r="7"/><text x="706.5" y="130" text-anchor="middle">17-32</text><circle class="node" cx="1373.5" cy="425" r="7"/><text x="1373.5" y="415" text-anchor="middle">47-48</text></svg>